<?xml version="1.0" encoding="UTF-8"?> <svg xmlns="http://www.w3.org/2000/svg" xmlns:v="https://vecta.io/nano" width="60" height="59" fill="#e4002b"><path d="M35.25 42a15.15 15.15 0 0 1-.782 2.924l3.175 2.877a19.14 19.14 0 0 1-1.537 2.683L32.03 49.17a15.25 15.25 0 0 1-2.149 2.148l1.314 4.076c-.846.585-1.746 1.091-2.683 1.537l-2.877-3.175a15.13 15.13 0 0 1-2.924.782l-.905 4.194-1.549.078a19.59 19.59 0 0 1-1.55-.078l-.905-4.194a15.15 15.15 0 0 1-2.924-.782L12 56.931a19.14 19.14 0 0 1-2.683-1.537l1.314-4.076a15.3 15.3 0 0 1-2.148-2.148l-4.076 1.314c-.585-.846-1.091-1.746-1.537-2.683l3.175-2.877A15.13 15.13 0 0 1 5.263 42l-4.194-.905-.078-1.55a19.59 19.59 0 0 1 .078-1.55l4.194-.905a15.15 15.15 0 0 1 .782-2.924L2.87 31.289a19.14 19.14 0 0 1 1.537-2.683l4.076 1.314a15.25 15.25 0 0 1 2.149-2.148l-1.314-4.076c.846-.585 1.746-1.091 2.683-1.537l2.877 3.175a15.13 15.13 0 0 1 2.924-.782l.905-4.194 1.549-.078a19.59 19.59 0 0 1 1.55.078l.905 4.194a15.15 15.15 0 0 1 2.924.782l2.877-3.175a19.14 19.14 0 0 1 2.683 1.537l-1.314 4.076a15.25 15.25 0 0 1 2.148 2.149l4.076-1.314c.585.846 1.091 1.746 1.537 2.683l-3.175 2.877a15.13 15.13 0 0 1 .782 2.924l4.194.905.078 1.549a19.59 19.59 0 0 1-.078 1.55L35.25 42zM20.257 29.405a10.14 10.14 0 0 0 0 20.279 10.14 10.14 0 0 0 0-20.279zm29.059-15.914c-.158.524-.365 1.027-.62 1.501l1.601 3.068a11.2 11.2 0 0 1-1.84 1.84l-3.068-1.601a7.99 7.99 0 0 1-1.501.62l-1.038 3.306a11.02 11.02 0 0 1-1.3.083c-.44 0-.872-.032-1.299-.082l-1.038-3.306c-.524-.157-1.027-.365-1.501-.62l-3.068 1.601a11.2 11.2 0 0 1-1.84-1.84l1.601-3.068a7.99 7.99 0 0 1-.62-1.501l-3.306-1.038a11.02 11.02 0 0 1-.083-1.3c0-.44.032-.872.082-1.299l3.306-1.038c.157-.524.365-1.027.62-1.501l-1.601-3.068a11.2 11.2 0 0 1 1.84-1.84l3.068 1.601a7.99 7.99 0 0 1 1.501-.62L40.25.083A11.02 11.02 0 0 1 41.55 0c.44 0 .872.032 1.299.082l1.038 3.306c.524.157 1.027.365 1.501.62l3.068-1.601a11.2 11.2 0 0 1 1.84 1.84l-1.601 3.068a7.99 7.99 0 0 1 .62 1.501l3.306 1.038a11.02 11.02 0 0 1 .083 1.3c0 .44-.032.872-.082 1.299l-3.306 1.038zM41.55 7.098c-2.24 0-4.056 1.816-4.056 4.056s1.816 4.056 4.056 4.056 4.056-1.816 4.056-4.056-1.816-4.056-4.056-4.056zm15.959 29.274c-.156.563-.376 1.096-.658 1.594l1.009 2.123a9.22 9.22 0 0 1-1.57 1.57l-2.123-1.009a7.04 7.04 0 0 1-1.594.658l-.789 2.219a9.08 9.08 0 0 1-1.108.074 9.08 9.08 0 0 1-1.108-.074l-.789-2.219c-.563-.156-1.096-.376-1.594-.658l-2.123 1.009a9.22 9.22 0 0 1-1.57-1.57l1.009-2.123a7.05 7.05 0 0 1-.658-1.593l-2.219-.789a9.11 9.11 0 0 1-.074-1.109 9.08 9.08 0 0 1 .074-1.108l2.219-.789a7.03 7.03 0 0 1 .658-1.593l-1.009-2.123a9.22 9.22 0 0 1 1.57-1.57l2.123 1.009a7.04 7.04 0 0 1 1.594-.658l.789-2.219a8.81 8.81 0 0 1 1.108-.075 9.08 9.08 0 0 1 1.108.074l.789 2.219c.563.156 1.096.376 1.594.658l2.123-1.009a9.22 9.22 0 0 1 1.57 1.57l-1.009 2.123a7.04 7.04 0 0 1 .658 1.594l2.219.789a9.08 9.08 0 0 1 .074 1.108 9.08 9.08 0 0 1-.074 1.108l-2.219.789zm-6.833-4.939a3.042 3.042 0 1 0 0 6.084 3.042 3.042 0 1 0 0-6.084zM60 2.048L53.936.836l-1.213 6.063 1.988.398.547-2.73c.983 2.044 1.502 4.297 1.502 6.586 0 3.496-1.154 6.783-3.336 9.506l1.583 1.268c2.439-3.043 3.781-6.869 3.781-10.774a17.26 17.26 0 0 0-1.781-7.636l2.596.519L60 2.048z"></path><path d="M21.988 10.437l-1.434 1.434 1.378 1.378-1.675-.067A26.31 26.31 0 0 0 0 22.671l1.557 1.299c4.643-5.568 11.458-8.761 18.699-8.761.516 0 1.031.029 1.546.062l-1.249 1.249 1.434 1.434 3.759-3.759-3.759-3.759z"></path></svg> 