<?xml version="1.0" encoding="UTF-8"?> <svg xmlns="http://www.w3.org/2000/svg" width="40" height="60" viewBox="0 0 40 60"><g fill="none" fill-rule="evenodd"><g fill="#E4002B" fill-rule="nonzero"><g><g><g><g><path d="M31.117 39.359c-.888.486-1.891.724-2.903.69h-.773l-5.158 12 2.938 6.848c.074.172.243.284.43.284.188 0 .358-.112.432-.284l3.669-9.476 9.393 3.869c.175.069.374.027.506-.107.133-.133.172-.333.1-.507L33.139 37.24c-.475.872-1.172 1.603-2.02 2.118zM19.959 42.345c-1.773 0-3.097-.938-4.138-1.69-.362-.272-.753-.503-1.166-.69-.138-.028-.28-.04-.42-.034-.338 0-.69 0-1.035.062-.469.041-.952.083-1.469.083-1.012.035-2.015-.203-2.903-.69-.286-.167-.555-.364-.8-.586L2.069 52.662c-.071.174-.032.374.1.508.133.133.332.175.507.106l9.393-3.87 3.669 9.477c.074.172.243.284.431.284s.357-.112.431-.284l7.917-18.497-.38.304c-1.082.69-2.406 1.655-4.178 1.655zM19.959 9.09C13.906 9.09 9 13.996 9 20.048c0 6.053 4.906 10.959 10.959 10.959 6.052 0 10.958-4.906 10.958-10.959C30.91 14 26.007 9.098 19.96 9.09z" transform="translate(-322 -1294) translate(0 922) translate(165 191) translate(0 181) translate(157)"></path><path d="M37.393 24.717c.42-1.558 2.317-2.98 2.317-4.676 0-1.696-1.903-3.11-2.317-4.675-.414-1.566.49-3.794-.324-5.207-.814-1.414-3.186-1.718-4.345-2.883-1.158-1.166-1.448-3.517-2.883-4.352-1.434-.834-3.593.104-5.207-.324-1.613-.428-2.979-2.317-4.668-2.317-1.69 0-3.11 1.896-4.676 2.317-1.566.42-3.793-.49-5.207.324C8.669 3.738 8.366 6.11 7.2 7.276 6.034 8.44 3.683 8.724 2.855 10.159c-.827 1.434.104 3.593-.33 5.207C2.09 16.979.206 18.345.206 20.04c0 1.697 1.896 3.11 2.317 4.67.42 1.558-.49 3.792.331 5.206.82 1.414 3.18 1.717 4.345 2.883 1.166 1.166 1.448 3.517 2.883 4.345 1.434.827 3.593-.104 5.207.33 1.613.435 2.979 2.318 4.676 2.318 1.696 0 3.11-1.903 4.668-2.317 1.56-.414 3.794.49 5.207-.324 1.414-.814 1.718-3.186 2.883-4.345 1.166-1.159 3.517-1.448 4.352-2.883.834-1.434-.11-3.593.317-5.207zM19.96 33.552c-7.458 0-13.504-6.046-13.504-13.504 0-7.457 6.046-13.503 13.504-13.503 7.457 0 13.503 6.046 13.503 13.503-.008 7.455-6.049 13.496-13.503 13.504z" transform="translate(-322 -1294) translate(0 922) translate(165 191) translate(0 181) translate(157)"></path></g></g></g></g></g></g></svg> 