<?xml version="1.0" encoding="UTF-8"?> <svg xmlns="http://www.w3.org/2000/svg" xmlns:v="https://vecta.io/nano" width="60" height="40" fill="#e4002b"><path d="M27.046 33.568c-.676-.373-1.527-.123-1.863.526l-1.844 3.403c-.342.654-.047 1.477.623 1.867.676.406 1.538.181 1.883-.486l1.861-3.443c.337-.66.029-1.492-.659-1.867zm-4.432-2.682c-.76-.411-1.721-.133-2.092.596l-1.969 3.69c-.381.734-.047 1.652.707 2.095.756.456 1.727.197 2.111-.547l1.971-3.735c.387-.743.036-1.669-.728-2.099zm-5.04-2.395c-.81-.414-1.805-.097-2.181.674l-1.959 3.915c-.387.776-.009 1.727.79 2.163.812.453 1.827.155 2.208-.628l1.972-3.957c.38-.782-.009-1.747-.83-2.168zM3.672 26.092l-.785.652c-.676.576-.706 1.622-.127 2.353.572.76 1.641.888 2.319.303l1.585-1.319-2.992-1.99zM20.361 5.297S22.797 3.37 25.114.936c0 0 .798-.737 2.097-.848 1.304-.117 6.456-.401 10.368 1.469 0 0 1.355.626 3.282 1.869 0 0 4.077 2.041 6.285 1.588l7.418-1.927L60 19.058l-6.171 3.06s-.231-.848-1.53-1.811L38.372 10.055s-6.178-4.475-9.69-4.361c0 0-1.188-.231-2.206.904s-5.098 5.382-8.607 4.129c0 0 2.659-.62 4.641-3.223.001 0 .401-.736-2.149-2.208zm-4.87 3.851l3.738-2.945s.962.395 1.526 1.076c.001 0-2.549 2.998-5.264 1.869zM0 22.259L3.059 4.847s4.617 1.98 7.442.509c0 0 5.1-3.288 7.65-3.173l2.718.339s-1.302 1.416-3.06 2.436-3.791 2.945-4.642 3.793c0 0-.795.851-.061 1.641s3.346 2.945 5.948 2.889 6.057-1.64 9.006-5.156c0 0 .512-.392 2.325.173s4.132 1.647 5.999 3.173c1.341 1.096 12.969 9.453 14.727 10.987 1.753 1.527.679 3.003.679 3.003s-.965 1.808-2.944.562l-11.892-7.647s-1.13-.737-1.756.17c0 0-.906 1.024.284 1.813l11.043 7.192s1.416 1.02.281 2.494-2.036 1.076-2.437.846c-.392-.223-11.607-7.473-11.607-7.473s-.96-.568-1.527.34.169 1.755.169 1.755l9.344 6.008s1.245 1.129.391 2.317c-.845 1.19-1.524 1.302-2.43.682-.908-.626-11.159-7.137-11.159-7.137s-.962-.735-1.588.287c0 0-.851.846.395 1.811s7.25 4.818 7.25 4.818 1.36.676.457 2.15c-.91 1.472-2.041.904-2.381.792s-2.319-.964-2.319-.964 1.867-2.603-.962-4.472c0 0-1.248-.968-2.889-.342 0 0-.228-1.358-1.983-2.377 0 0-1.474-.796-3.173 0 0 0-.056-1.641-2.262-2.606 0 0-2.436-.904-4.077 1.137l-1.31 2.655L0 22.259z"></path></svg> 