<?xml version="1.0" encoding="UTF-8"?> <svg xmlns="http://www.w3.org/2000/svg" xmlns:xlink="http://www.w3.org/1999/xlink" width="50px" height="60px" viewBox="0 0 50 60" version="1.1"><title>Solutions</title><g id="Page-1" stroke="none" stroke-width="1" fill="none" fill-rule="evenodd"><g id="Lee-Comapny-Industry-Icons-Copy" transform="translate(-185.000000, -80.000000)" fill="#E4002B" fill-rule="nonzero"><g id="Solutions" transform="translate(185.000000, 80.000000)"><g id="Group" transform="translate(0.000000, 8.820769)"><path d="M21.7287179,51.1792308 L27.4457692,51.1792308 L28.5973077,46.4662821 C28.754359,45.8230769 29.245641,45.3141026 29.8832051,45.1338462 C31.2870513,44.7370513 32.6624359,44.1678205 33.9708974,43.4419231 C34.5482051,43.1217949 35.2526923,43.1353846 35.8173077,43.4773077 L39.9792308,45.999359 L44.0228205,41.9594872 L41.5055128,37.8173077 C41.1615385,37.2512821 41.1488462,36.5442308 41.4723077,35.9662821 C42.1953846,34.675 42.7674359,33.3029487 43.1730769,31.8883333 C43.3548718,31.2541026 43.8629487,30.7658974 44.504359,30.609359 L49.2307692,29.4548718 L49.2307692,25.8767949 L36.6532051,25.8767949 C34.7703846,29.5923077 33.8107692,33.6414103 33.8107692,37.8029487 C33.8107692,40.3483333 31.7423077,42.4151282 29.2001282,42.4151282 L19.9705128,42.4151282 C17.4614103,42.4151282 15.42,40.3483333 15.42,37.8029487 C15.42,33.6694872 14.5898718,29.5515385 12.6478205,25.8767949 L0,25.8767949 L0,29.3985897 L4.70871795,30.5484615 C5.35205128,30.7055128 5.86115385,31.1961538 6.04166667,31.8329487 C6.4425641,33.2474359 7.01076923,34.6211538 7.73038462,35.9157692 C8.05128205,36.4929487 8.03769231,37.1975641 7.69461538,37.7619231 L5.16833333,41.9183333 L9.21115385,45.9566667 L13.3580769,43.4417949 C13.924359,43.0984615 14.6315385,43.0858974 15.2097436,43.4087179 C16.5282051,44.1452564 17.9017949,44.7202564 19.2921795,45.1178205 C19.9274359,45.299359 20.4161538,45.8074359 20.5728205,46.4487179 L21.7287179,51.1792308 Z" id="Path"></path><g transform="translate(11.182436, 0.000000)"><path d="M7.69641026,33.7926923 C7.86666667,35.124359 7.91564103,36.4619231 7.91564103,37.8030769 C7.91564103,38.3307692 8.29871795,38.7401282 8.78794872,38.7401282 L18.0175641,38.7401282 C18.5230769,38.7401282 18.9501282,38.3132051 18.9501282,37.8030769 C18.9501282,36.4602564 19.0228205,35.1260256 19.1864103,33.7926923 L7.69641026,33.7926923 Z" id="Path"></path><path d="M13.4544872,0 C6.03576923,0 0,5.83551282 0,13.0082051 C0,15.709359 0.865,18.3128205 2.50141026,20.5433333 C4.58538462,23.3839744 6.11012821,26.7248718 7.00102564,30.1174359 L19.9073077,30.1174359 C20.8174359,26.725 22.3667949,23.4082051 24.5137179,20.4085897 C26.0524359,18.2584615 26.8658974,15.7 26.8658974,13.0065385 C26.8658974,5.83384615 20.8494872,0 13.4544872,0 Z M13.1010256,20.5658974 C12.4521795,21.2715385 11.3311538,21.3525641 10.5873077,20.7491026 L5.18089744,16.3617949 L7.49961538,13.5088462 L11.5629487,16.8062821 L19.2488462,8.44730769 L21.9574359,10.9338462 L13.1010256,20.5658974 Z" id="Shape"></path></g></g><g id="Group"><rect id="Rectangle" x="22.885641" y="0" width="3.45948718" height="4.12012821"></rect><polygon id="Rectangle" transform="translate(6.882553, 8.334561) rotate(-45.032412) translate(-6.882553, -8.334561) " points="5.15359461 6.25118326 8.61151071 6.25118326 8.61151071 10.4179388 5.15359461 10.4179388"></polygon><rect id="Rectangle" x="0" y="23.7897436" width="4.12474359" height="3.45666667"></rect><rect id="Rectangle" x="45.1060256" y="23.6569231" width="4.12474359" height="3.45666667"></rect><polygon id="Rectangle" transform="translate(42.132829, 8.252859) rotate(-45.016206) translate(-42.132829, -8.252859) " points="40.0495157 6.52377304 44.2161426 6.52377304 44.2161426 9.98194514 40.0495157 9.98194514"></polygon></g></g></g></g></svg> 