<?xml version="1.0" encoding="UTF-8"?> <svg xmlns="http://www.w3.org/2000/svg" xmlns:v="https://vecta.io/nano" width="60" height="61" fill="#e4002b"><path d="M56.87 40.856l-11.163 2.217-.395-1.997-.754-3.798-5.795 1.153.754 3.798.395 1.997-3.236.644a12.14 12.14 0 0 0-1.064-1.867 12.35 12.35 0 0 0-7.503-5.017 12.27 12.27 0 0 0-2.132-.269l-4.01-20.199c-.11-.55.249-1.088.799-1.194l11.163-2.217.395 1.997.758 3.798 5.795-1.153-.754-3.798-.395-1.997 11.159-2.217a1.02 1.02 0 0 1 1.198.803l5.588 28.117a1.02 1.02 0 0 1-.803 1.199zm1.426 1.172L37.2 46.218a12.31 12.31 0 0 1 .361 1.382 12.3 12.3 0 0 1 .194 1.416l21.095-4.19c.773-.153 1.275-.904 1.121-1.677s-.904-1.275-1.677-1.121zM10.657.974c-.225-.67-.912-1.088-1.624-.947-.47.093-.837.408-1.018.813-.206.461-.656.767-1.152.865L1.186 2.834C.519 2.967.002 3.539 0 4.22a1.43 1.43 0 0 0 1.705 1.419l5.714-1.135c.495-.099 1.029.012 1.395.359.323.306.782.456 1.252.363.697-.138 1.169-.764 1.143-1.452a3.86 3.86 0 0 1 4.123 3.086l6.255 31.491a12.49 12.49 0 0 1 1.529-.411 12.3 12.3 0 0 1 1.262-.183L18.13 6.304a6.71 6.71 0 0 0-7.473-5.33zM23.393 39.34c-5.884 1.168-9.707 6.886-8.538 12.77s6.886 9.707 12.77 8.538 9.707-6.886 8.538-12.77-6.886-9.707-12.77-8.538zm2.921 14.705c-2.234.444-4.413-1.013-4.856-3.247s1.013-4.413 3.247-4.856 4.413 1.013 4.856 3.247-1.013 4.413-3.247 4.856z"></path></svg> 