<?xml version="1.0" encoding="UTF-8"?> <svg xmlns="http://www.w3.org/2000/svg" xmlns:v="https://vecta.io/nano" width="162" height="96" fill-rule="evenodd"><g fill-rule="nonzero"><path fill="#fff" d="M2.885 80.334H0v-2.663h8.766v2.663H5.881v14.869H2.885zm7.656 14.869V77.671h2.996v7.102h3.218v-7.102h2.996v17.532h-2.996v-7.767h-3.218v7.767zm12.095 0V77.671h7.989v2.663h-4.993v4.55h3.883v2.663h-3.883v5.104h5.326v2.663h-8.322zm16.532 0V77.671h2.996V92.54h4.772v2.663h-7.768zm9.432 0V77.671h7.989v2.663h-4.993v4.55h3.883v2.663h-3.883v5.104h5.326v2.663H48.6zm10.652 0V77.671h7.989v2.663h-4.993v4.55h3.884v2.663h-3.884v5.104h5.326v2.663h-8.322zm21.526-11.54v-1.331c0-1.443-.666-2.109-1.442-2.109-1.22 0-1.554.666-1.554 1.887v8.876c0 1.332.333 1.887 1.554 1.887 1.11 0 1.442-.666 1.442-1.776V88.99h2.996v1.997c0 2.441-1.442 4.439-4.438 4.439-3.107 0-4.55-1.998-4.55-4.439V82c0-2.441 1.443-4.439 4.55-4.439 2.996 0 4.438 2.22 4.438 4.772v1.331h-2.996zm4.882-1.775c0-2.441 1.443-4.439 4.55-4.439s4.549 1.998 4.549 4.439v8.987c0 2.441-1.443 4.439-4.55 4.439s-4.549-1.998-4.549-4.439v-8.987zm2.996 8.987c0 1.332.333 1.887 1.554 1.887s1.553-.666 1.553-1.887V82c0-1.332-.333-1.887-1.553-1.887s-1.554.666-1.554 1.887v8.876zm20.639-13.204v17.532h-2.663V81.555h0l-2.664 13.648h-1.442l-2.663-13.648h0v13.648H97.2V77.671h3.995l2.108 10.208h0l2.108-10.208zm2.663 17.532V77.67h4.327c3.662 0 5.437 1.443 5.437 5.104s-1.664 5.104-5.437 5.104h-1.332v7.213h-2.995v.11zm2.995-9.654h1.11c1.997 0 2.552-.554 2.552-2.663s-.555-2.663-2.552-2.663h-1.11v5.326zm9.321 9.654h-2.885l3.218-17.532h3.772l3.218 17.532h-2.885l-.554-3.884h-3.33l-.554 3.884zm.999-6.547h2.44l-1.22-7.545-1.22 7.545zm7.878 6.547V77.671h2.774l3.661 9.987h0v-9.987h2.663v17.532h-2.663l-3.772-10.874h0v10.874zm17.42 0h-2.996V87.99l-3.661-10.208h2.996l2.108 6.658h0l1.997-6.658h2.996l-3.662 10.208v7.213z"></path><path fill="#ea0029" d="M0 0h5.881v40.278h5.992V28.96h15.978v6.214h-9.987v5.104h9.987v5.881h-9.987v7.656h9.987v6.103H11.873V46.159H0z"></path><path fill="#eb1f3c" d="M56.478 46.603H75.23l-5.88 4.993c-2.553 2.441-4.328 2.33-7.102 0-1.997-1.554-5.77-4.993-5.77-4.993zM75.23 67.574H56.478l5.88-4.993c2.553-2.441 4.328-2.33 7.102 0 1.998 1.553 5.77 4.993 5.77 4.993z"></path></g><g fill="#ea0029"><path d="M102.304 57.144c0-2.22 1.886-4.106 4.106-4.106s4.105 1.887 4.105 4.106-1.886 4.105-4.105 4.105c-2.33 0-4.106-1.886-4.106-4.105zM31.845 29.07v30.847h52.15l12.65 12.538 4.106-4.327-8.322-8.211h4.216s1.776 7.323 9.987 7.323c6.99 0 9.653-7.323 9.653-7.323h19.307l12.427 12.538 4.439-4.216-8.322-8.433h10.208v-5.77h-10.097l8.321-8.322-4.438-4.327-12.316 12.538h-19.751s-2.108-7.212-9.431-7.212c-7.879 0-9.765 7.212-9.765 7.212H92.43l8.433-8.322-4.106-4.327-12.65 12.87h-46.49V46.16h9.763v-5.88h-9.764v-5.105h9.764v-6.103H31.845z"></path><path fill-rule="nonzero" d="M157.784 41.61c1.886 0 3.55 1.553 3.55 3.55s-1.664 3.551-3.55 3.551-3.551-1.553-3.551-3.55c0-2.109 1.553-3.551 3.55-3.551zm0 6.546c1.664 0 2.884-1.331 2.884-2.996s-1.22-2.996-2.884-2.996-2.885 1.332-2.885 2.996 1.22 2.996 2.885 2.996zm-1.443-5.104h1.554c.998 0 1.442.333 1.442 1.22 0 .777-.444 1.11-1.11 1.11l1.22 1.776h-.665l-1.11-1.776h-.665v1.776h-.666v-4.106zm.666 1.775h.666c.554 0 1.11 0 1.11-.665 0-.555-.445-.666-.888-.666h-.888v1.331z"></path></g></svg> 