<?xml version="1.0" encoding="UTF-8"?> <svg xmlns="http://www.w3.org/2000/svg" xmlns:v="https://vecta.io/nano" width="60" height="60" fill="#e4002b"><path d="M30 60c1.074-.001 2.147-.058 3.214-.171a1.08 1.08 0 0 0 .959-1.184 1.08 1.08 0 0 0-1.184-.959 28.36 28.36 0 0 1-2.989.171C14.615 57.857 2.143 45.385 2.143 30c-.008-3.546.668-7.06 1.993-10.35a1.07 1.07 0 0 0-1.151-1.458 1.07 1.07 0 0 0-.842.665A29.66 29.66 0 0 0 0 30a30 30 0 0 0 30 30h0zm10.982-4.393a26.69 26.69 0 0 1-4.211 1.414 1.08 1.08 0 0 0-.948 1.195 1.08 1.08 0 0 0 1.195.948h.257a28.78 28.78 0 0 0 4.511-1.586c.544-.234.796-.865.562-1.409s-.865-.796-1.409-.562h.043zM30 0c-1.074.001-2.147.058-3.214.171a1.08 1.08 0 0 0-.872.633c-.157.351-.114.76.112 1.071a1.08 1.08 0 0 0 .984.438 28.36 28.36 0 0 1 2.99-.17c15.385 0 27.857 12.472 27.857 27.857.008 3.546-.668 7.06-1.993 10.35a1.07 1.07 0 0 0 .6 1.436 1.08 1.08 0 0 0 .396.075 1.07 1.07 0 0 0 .996-.718A29.66 29.66 0 0 0 60 30 30 30 0 0 0 30 0zM18.6 4.479a1.07 1.07 0 0 0 .418-.086 26.69 26.69 0 0 1 4.211-1.414 1.07 1.07 0 0 0 .573-1.81A1.07 1.07 0 0 0 22.725.9a28.78 28.78 0 0 0-4.511 1.521 1.07 1.07 0 0 0 .418 2.057H18.6zM4.996 6.51l1.515-1.515 2.273 2.273-1.515 1.515zm3.029 10.633a1.07 1.07 0 0 0 1.511 0l7.607-7.596a1.07 1.07 0 0 0 0-1.511l-6.086-6.064a1.07 1.07 0 0 0-1.511 0l-1.521 1.51 3.032 3.032a1.07 1.07 0 0 1 0 1.511l-3.032 3.032a1.07 1.07 0 0 1-1.511 0L3.482 8.025l-1.51 1.521a1.07 1.07 0 0 0 0 1.511l6.054 6.086zm43.191 35.589l1.515-1.515 2.273 2.273-1.515 1.515zm6.812-2.279a1.07 1.07 0 0 0 0-1.511l-6.054-6.086a1.07 1.07 0 0 0-1.511 0l-7.607 7.596a1.07 1.07 0 0 0 0 1.511l6.064 6.064a1.07 1.07 0 0 0 1.511 0l1.511-1.511-3.032-3.032a1.07 1.07 0 0 1 0-1.511l3.032-3.032a1.07 1.07 0 0 1 1.511 0l3.032 3.032 1.543-1.521zM31.071 28.928h7.5a38.48 38.48 0 0 0-.911-7.5h-6.589v7.5zm-2.142-18.042c-2.464.729-4.639 3.911-6.011 8.4h6.011v-8.4zm-7.5 18.042h7.5v-7.5h-6.568a38.49 38.49 0 0 0-.932 7.5h0zm29.946 2.143H40.714a40.93 40.93 0 0 1-.836 7.5h9.782a21.27 21.27 0 0 0 1.714-7.5zM28.929 49.114v-8.4h-6.011c1.371 4.489 3.546 7.661 6.011 8.4zM10.371 38.571h9.782a40.86 40.86 0 0 1-.868-7.5H8.571a21.27 21.27 0 0 0 1.8 7.5zm9.783-17.142h-9.782a21.27 21.27 0 0 0-1.746 7.5h10.661a40.86 40.86 0 0 1 .868-7.5h0zm10.917-10.543v8.4h6.011c-1.371-4.489-3.546-7.661-6.011-8.4zm8.775 10.543a40.86 40.86 0 0 1 .868 7.5h10.714a21.27 21.27 0 0 0-1.746-7.5h-9.836zM20.689 40.714h-9.214A21.43 21.43 0 0 0 30 51.428c-4.039 0-7.5-4.286-9.311-10.714z"></path><path d="M48.525 40.714h-9.214C37.5 47.143 34.039 51.428 30 51.428a21.43 21.43 0 0 0 18.525-10.714h0zm-37.05-21.428h9.214C22.5 12.857 25.961 8.571 30 8.571a21.43 21.43 0 0 0-18.525 10.714z"></path><path d="M22.361 38.571h6.568v-7.5h-7.5a38.49 38.49 0 0 0 .932 7.5h0zm7.639-30c4.039 0 7.5 4.286 9.311 10.714h9.214A21.43 21.43 0 0 0 30 8.571zm1.071 40.543c2.464-.729 4.639-3.911 6.011-8.4h-6.011v8.4zm0-10.543h6.568a38.49 38.49 0 0 0 .932-7.5h-7.5v7.5z"></path></svg> 